<?xml version="1.0" encoding="utf-8"?>
<!-- Generator: Adobe Illustrator 16.0.0, SVG Export Plug-In . SVG Version: 6.00 Build 0)  -->
<!DOCTYPE svg PUBLIC "-//W3C//DTD SVG 1.1//EN" "http://www.w3.org/Graphics/SVG/1.1/DTD/svg11.dtd">
<svg version="1.1" id="Layer_1" xmlns="http://www.w3.org/2000/svg" xmlns:xlink="http://www.w3.org/1999/xlink" x="0px" y="0px"
	 width="1400px" height="980px" viewBox="0 0 1400 980" enable-background="new 0 0 1400 980" xml:space="preserve">
<g>
	<g>
		<rect fill="#FFFFFF" width="1399.994" height="980"/>
	</g>
</g>
<g>
	<g>
		<path fill="#717375" d="M1215.31,575.475l8.151-8.152l-46.894-46.898l61.997-62c0.003-0.005,0.014-0.01,0.014-0.01
			c1.248-1.248,1.758-3.04,1.357-4.797c-0.344-1.453-1.293-2.624-2.582-3.315l-73.607,73.607L1215.31,575.475z"/>
	</g>
	<g>
		<path fill="#808285" d="M1051.066,752.2l129.12-129.115c32.153,10.128,68.103,1.404,91.886-22.382
			c24.554-24.551,32.941-60.333,21.896-93.392c-0.58-1.7-1.963-2.959-3.711-3.362c-1.747-0.397-3.538,0.112-4.792,1.365
			l-62.005,62.008l-8.151,8.152l-51.563-51.566l73.607-73.607c-0.255-0.141-0.502-0.286-0.788-0.382
			c-33.053-11.043-68.831-2.652-93.381,21.896c-23.786,23.789-32.505,59.73-22.377,91.879L991.685,692.818
			c-0.735,0.732-0.732,1.921,0,2.652l56.728,56.727C1049.146,752.936,1050.331,752.936,1051.066,752.2z"/>
	</g>
	<g>
		<path fill="#717375" d="M1031.792,712.098c-7.948-7.945-7.948-20.832-0.003-28.778l106.188-106.184
			c7.948-7.946,20.829-7.946,28.777,0.003l0,0c7.946,7.943,7.946,20.829-0.002,28.775l-106.185,106.184
			C1052.624,720.044,1039.738,720.044,1031.792,712.098L1031.792,712.098z"/>
	</g>
</g>
<g>
	<g>
		<path fill="#0089B0" d="M813.454,53.849c-47.3,24.563-65.731,82.819-41.168,130.121c14.043,27.042,39.104,44.628,66.831,50.157
			l28.048,54.007l1.162-244.582C850.045,41.555,830.997,44.738,813.454,53.849z"/>
	</g>
	<g>
		<path fill="#077A9D" d="M943.575,95.019c-15.453-29.758-44.241-48.079-75.248-51.467l-1.162,244.582l18.666-56.267
			c5.621-1.703,11.17-3.923,16.573-6.727C949.706,200.574,968.139,142.318,943.575,95.019z"/>
	</g>
</g>
<g>
	<g>
		<path fill="#FF7F64" d="M1148.645,86.977c-69.455,0-125.761,56.306-125.761,125.761c0,39.709,18.422,75.102,47.172,98.147v79.304
			l147.44-282.673C1197.712,94.546,1174.068,86.977,1148.645,86.977z"/>
	</g>
	<g>
		<path fill="#E5765F" d="M1217.496,107.516l-147.44,282.673l55.38-53.862c7.525,1.404,15.273,2.171,23.209,2.171
			c69.455,0,125.761-56.306,125.761-125.76C1274.405,168.707,1251.758,129.983,1217.496,107.516z"/>
	</g>
</g>
<g>
	<g>
		<path fill="#808285" d="M637.264,385.878l36.233-10.687c-1.056-13.664-3.162-27.018-6.274-40.008l-37.78,1.032l-5.811-17.725
			l31.256-21.42c-5.208-12.546-11.354-24.595-18.393-36.056l-35.643,12.66l-10.999-15.05l23.053-29.956
			c-8.791-10.278-18.357-19.857-28.635-28.63l-29.933,22.998l-15.115-10.92l12.686-35.674
			c-11.448-7.039-23.495-13.183-36.041-18.386l-21.415,31.202l-17.751-5.71l1.048-37.837c-12.98-3.11-26.342-5.221-39.99-6.279
			l-10.702,36.246h-18.638l-10.697-36.246c-13.656,1.058-27.005,3.169-39.985,6.279l1.029,37.837l-17.728,5.757l-21.433-31.249
			c-12.543,5.203-24.584,11.347-36.041,18.386l12.688,35.674l-15.088,10.967l-29.961-23.045
			c-10.278,8.786-19.842,18.352-28.625,28.63l23.032,29.956l-10.955,15.094l-35.679-12.686
			c-7.034,11.451-13.19,23.492-18.388,36.046l31.248,21.425l-5.754,17.738l-37.837-1.035c-3.113,12.975-5.219,26.324-6.267,39.985
			l36.233,10.689l0.013,18.659l-36.246,10.689c1.063,13.651,3.162,27.013,6.269,39.985l37.834-1.053l5.765,17.762l-31.241,21.419
			c5.188,12.541,11.339,24.587,18.386,36.03l35.658-12.67l10.988,15.091l-23.053,29.94c8.794,10.286,18.354,19.85,28.638,28.638
			l29.94-23.034l15.104,10.959l-12.681,35.669c11.443,7.03,23.508,13.183,36.04,18.378l21.42-31.215l17.741,5.738l-1.037,37.814
			c12.977,3.114,26.336,5.229,39.998,6.273l10.682-36.199l18.658-0.033l10.679,36.232c13.661-1.053,27.023-3.161,39.993-6.273
			l-1.027-37.785l17.728-5.807l21.404,31.254c12.564-5.216,24.595-11.368,36.056-18.409l-12.666-35.638l15.073-10.988l29.938,23.045
			c10.278-8.788,19.854-18.364,28.638-28.632l-23.011-29.928l10.931-15.114l35.668,12.681c7.046-11.448,13.183-23.498,18.383-36.038
			l-31.191-21.415l5.707-17.746l37.827,1.03c3.113-12.97,5.219-26.324,6.274-39.979l-36.189-10.694L637.264,385.878z
			 M417.74,597.144c-111.535,0-201.952-90.417-201.952-201.95c0-111.535,90.417-201.952,201.952-201.952
			s201.95,90.417,201.95,201.952C619.689,506.727,529.275,597.144,417.74,597.144z"/>
	</g>
	<g>
		<path fill="#717375" d="M417.74,193.242c-111.535,0-201.952,90.417-201.952,201.952c0,111.533,90.417,201.95,201.952,201.95
			s201.95-90.417,201.95-201.95C619.689,283.659,529.275,193.242,417.74,193.242z M389.302,564.949
			C317.063,552.937,260.039,495.934,248,423.702h130.233c3.061,4.256,6.81,7.988,11.069,11.059V564.949z M389.302,355.63
			c-4.311,3.099-8.079,6.88-11.17,11.191H247.967c12.002-72.294,69.052-129.351,141.335-141.382V355.63z M446.185,564.949V434.76
			c4.251-3.071,8.003-6.802,11.069-11.059h130.235C575.443,495.934,518.427,552.937,446.185,564.949z M457.348,366.821
			c-3.086-4.311-6.859-8.092-11.163-11.191V225.439c72.289,12.023,129.338,69.088,141.325,141.382H457.348z"/>
	</g>
	<g>
		<circle fill="#4F5052" cx="417.74" cy="395.194" r="25.286"/>
	</g>
	<g>
		<path fill="none" d="M378.233,423.702H248c12.039,72.232,69.062,129.235,141.302,141.248V434.76
			C385.043,431.689,381.294,427.958,378.233,423.702z"/>
	</g>
	<g>
		<path fill="none" d="M446.185,434.76v130.189c72.242-12.013,129.258-69.016,141.304-141.248H457.254
			C454.188,427.958,450.437,431.689,446.185,434.76z"/>
	</g>
	<g>
		<path fill="none" d="M247.967,366.821h130.165c3.092-4.311,6.859-8.092,11.17-11.191V225.439
			C317.019,237.47,259.969,294.527,247.967,366.821z"/>
	</g>
	<g>
		<path fill="none" d="M446.185,225.439V355.63c4.303,3.099,8.076,6.88,11.163,11.191H587.51
			C575.523,294.527,518.474,237.462,446.185,225.439z"/>
	</g>
</g>
<g>
	<g>
		<g>
			<path fill="#FFFFFF" d="M960.92,605.264l-2.912,0.97L917.009,593.6l-9.012,13.531c-8.591,5.866-33.88,15.829-61.764,24.597
				c0,0-37.13,6.969-52.46,26.465c0,0-0.874,0.728-2.27,3.019v168.504h49.634V700.01c0-8.021,6.563-14.579,14.587-14.579h105.198
				v-80.167H960.92z"/>
		</g>
		<g>
			<path fill="#EBEBEB" d="M1128.067,658.192c-15.32-19.496-52.469-26.465-52.469-26.465c-27.884-8.768-53.18-18.73-61.761-24.597
				l-9.004-13.531l-41.002,12.637l-2.909-0.973v80.167h106.616c8.021,0,14.578,6.558,14.578,14.579v129.705h49.64V667.789
				C1129.56,661.489,1128.067,658.192,1128.067,658.192z"/>
		</g>
	</g>
	<g>
		<path fill="#0089B0" d="M1082.117,700.01c0-8.021-6.557-14.579-14.578-14.579H960.923v144.284h121.194V700.01z"/>
	</g>
	<g>
		<path fill="#0095BF" d="M855.725,685.431c-8.024,0-14.587,6.558-14.587,14.579v129.705h119.785V685.431H855.725z"/>
	</g>
	<g>
		<g>
			<g>
				<polygon fill="#E3BDA6" points="960.92,549.127 917.009,568.472 917.009,593.6 960.92,607.131 961.627,606.915 961.627,549.439 
									"/>
			</g>
		</g>
		<g>
			<g>
				<polygon fill="#BF9F8D" points="1004.834,568.472 961.627,549.439 961.627,606.915 1004.834,593.6 				"/>
			</g>
		</g>
	</g>
	<g>
		<g>
			<g>
				<path fill="none" d="M1031.118,474.03c0.107-0.057,0.206-0.096,0.313-0.146c-0.026-0.406-0.058-0.822-0.094-1.258
					C1031.202,473.531,1031.118,474.03,1031.118,474.03z"/>
			</g>
		</g>
		<g>
			<g>
				<path fill="#F8CEB5" d="M880.027,454.147c0.611,6.817,1.766,12.956,2.993,17.998c-7.255,0.972-6.719,12.355-6.719,12.355
					c-1.311,36.696,21.396,42.801,21.396,42.801c9.61,57.187,63.222,66.298,63.222,66.298s0.253-0.042,0.707-0.135V454.147H880.027z
					"/>
			</g>
		</g>
		<g>
			<g>
				<path fill="#E3BDA6" d="M1045.528,484.5c0,0,0.76-16.071-11.69-11.662c1.974-6.586,3.453-12.803,4.524-18.692h-76.735v139.318
					c6.332-1.311,53.537-12.829,62.502-66.163C1024.129,527.302,1046.839,521.196,1045.528,484.5z M1031.118,474.03
					c0,0,0.084-0.499,0.219-1.404c0.036,0.437,0.067,0.853,0.094,1.258C1031.324,473.934,1031.226,473.973,1031.118,474.03z"/>
			</g>
		</g>
	</g>
	<g>
		<g>
			<path fill="#E0B65A" d="M960.923,419.484v30.752h85.609v-27.671c0-24.678-10.78-46.831-27.873-62.036v23.411
				c0,6.898-5.591,12.483-12.483,12.483c-6.894,0-12.483-5.585-12.483-12.483v-31.914c0-2.241,0.598-4.339,1.633-6.16
				c-6.891-2.86-14.249-4.805-21.925-5.717v66.852C973.4,413.894,967.811,419.477,960.923,419.484z"/>
		</g>
	</g>
	<g>
		<g>
			<path fill="#FFCF66" d="M960.923,419.484c-0.003,0-0.008,0-0.008,0c-6.896,0-12.485-5.59-12.485-12.483v-66.852
				c-7.676,0.913-15.034,2.857-21.925,5.717c1.037,1.82,1.633,3.918,1.633,6.16v31.914c0,6.898-5.585,12.483-12.48,12.483
				s-12.486-5.585-12.486-12.483v-23.414c-17.096,15.208-27.876,37.359-27.876,62.039v27.671h85.628V419.484z"/>
		</g>
	</g>
	<g>
		<g>
			<path fill="#FFE099" d="M875.295,450.236h-5.479c-5.094,0-9.223,4.131-9.223,9.233c0,5.094,4.129,9.22,9.223,9.22h91.106v-18.453
				H875.295z"/>
		</g>
	</g>
	<g>
		<g>
			<path fill="#EBCD8D" d="M1052.008,450.236h-5.476h-85.609v18.453h91.085c5.097,0,9.226-4.126,9.226-9.22
				C1061.233,454.368,1057.104,450.236,1052.008,450.236z"/>
		</g>
	</g>
	<g>
		<g>
			<path fill="#EBCD8D" d="M960.923,327.058v12.483v79.943c6.888-0.008,12.478-5.59,12.478-12.483v-66.852v-0.608
				C973.4,332.648,967.811,327.06,960.923,327.058z"/>
		</g>
	</g>
	<g>
		<g>
			<path fill="#FFE099" d="M960.915,327.058c-6.896,0-12.485,5.587-12.485,12.483v0.608v66.852c0,6.893,5.59,12.483,12.485,12.483
				c0,0,0.005,0,0.008,0v-79.943v-12.483C960.92,327.058,960.915,327.058,960.915,327.058z"/>
		</g>
	</g>
	<g>
		<g>
			<path fill="#EBCD8D" d="M1006.176,339.541c-4.652,0-8.703,2.553-10.851,6.326c-1.035,1.82-1.633,3.918-1.633,6.16v31.914
				c0,6.898,5.59,12.483,12.483,12.483c6.893,0,12.483-5.585,12.483-12.483v-23.411v-8.503
				C1018.659,345.131,1013.068,339.541,1006.176,339.541z"/>
		</g>
	</g>
	<g>
		<g>
			<path fill="#FFE099" d="M926.505,345.867c-2.146-3.772-6.198-6.326-10.848-6.326c-6.896,0-12.486,5.59-12.486,12.485v8.5v23.414
				c0,6.898,5.591,12.483,12.486,12.483s12.48-5.585,12.48-12.483v-31.914C928.138,349.785,927.542,347.687,926.505,345.867z"/>
		</g>
	</g>
	<g>
		<g>
			<path fill="#00A9D9" d="M857.932,623.268v121.171c0,9.149,7.418,16.573,16.57,16.573s16.573-7.424,16.573-16.573V612.727
				L857.932,623.268z"/>
		</g>
	</g>
	<g>
		<g>
			<circle fill="#F5DE00" cx="874.504" cy="743.669" r="8.025"/>
		</g>
	</g>
	<g>
		<g>
			<path fill="#00A9D9" d="M1065.328,623.268v121.171c0,9.149-7.42,16.573-16.57,16.573c-9.152,0-16.573-7.424-16.573-16.573
				V612.727L1065.328,623.268z"/>
		</g>
	</g>
	<g>
		<g>
			<circle fill="#F5DE00" cx="1048.757" cy="743.669" r="8.025"/>
		</g>
	</g>
	<g>
		<g>
			<g>
				<g>
					<g>
						<polygon fill="#E3BDA6" points="700.6,484.342 644.177,509.199 644.177,541.482 700.6,558.872 701.511,558.594 
							701.511,484.74 						"/>
					</g>
				</g>
			</g>
			<g>
				<g>
					<g>
						<polygon fill="#BF9F8D" points="757.023,509.199 701.511,484.74 701.511,558.594 757.023,541.482 						"/>
					</g>
				</g>
			</g>
		</g>
		<g>
			<g>
				<g>
					<g>
						<path fill="none" d="M790.799,387.851c0.135-0.075,0.26-0.125,0.397-0.192c-0.036-0.515-0.075-1.056-0.116-1.617
							C790.902,387.211,790.799,387.851,790.799,387.851z"/>
					</g>
				</g>
			</g>
			<g>
				<g>
					<g>
						<path fill="#F8CEB5" d="M596.66,362.302c0.782,8.757,2.27,16.646,3.845,23.125c-9.319,1.251-8.635,15.876-8.635,15.876
							c-1.682,47.148,27.494,54.993,27.494,54.993c12.348,73.482,81.236,85.186,81.236,85.186s0.323-0.052,0.911-0.177V362.302
							H596.66z"/>
					</g>
				</g>
			</g>
			<g>
				<g>
					<g>
						<path fill="#E3BDA6" d="M809.312,401.304c0,0,0.978-20.653-15.019-14.984c2.533-8.461,4.437-16.451,5.807-24.018h-98.589
							v179.003c8.13-1.677,68.789-16.482,80.305-85.009C781.815,456.297,810.997,448.453,809.312,401.304z M790.799,387.851
							c0,0,0.104-0.64,0.281-1.81c0.041,0.562,0.08,1.103,0.116,1.617C791.059,387.727,790.934,387.776,790.799,387.851z"/>
					</g>
				</g>
			</g>
		</g>
		<g>
			<g>
				<g>
					<path fill="#E0B65A" d="M700.6,317.762v39.517h110.001v-35.557c0-31.708-13.849-60.17-35.814-79.712v30.086
						c0,8.861-7.182,16.038-16.04,16.038c-8.856,0-16.04-7.177-16.04-16.038v-41.012c0-2.871,0.767-5.569,2.096-7.91
						c-8.854-3.674-18.305-6.175-28.17-7.351v85.898C716.633,310.581,709.454,317.757,700.6,317.762z"/>
				</g>
			</g>
		</g>
		<g>
			<g>
				<g>
					<path fill="#FFCF66" d="M700.6,317.762h-0.01c-8.858,0-16.038-7.182-16.038-16.041v-85.898
						c-9.865,1.175-19.322,3.677-28.172,7.351c1.329,2.34,2.096,5.039,2.096,7.91v41.012c0,8.861-7.179,16.038-16.035,16.038
						c-8.861,0-16.043-7.177-16.043-16.038v-30.089c-21.966,19.542-35.819,48.003-35.819,79.715v35.557H700.6V317.762z"/>
				</g>
			</g>
		</g>
		<g>
			<g>
				<g>
					<path fill="#FFE099" d="M590.578,357.279h-7.036c-6.547,0-11.852,5.307-11.852,11.862c0,6.547,5.304,11.846,11.852,11.846
						H700.6v-23.708H590.578z"/>
				</g>
			</g>
		</g>
		<g>
			<g>
				<g>
					<path fill="#EBCD8D" d="M817.638,357.279h-7.036H700.6v23.708h117.038c6.547,0,11.856-5.299,11.856-11.846
						C829.494,362.586,824.185,357.279,817.638,357.279z"/>
				</g>
			</g>
		</g>
		<g>
			<g>
				<g>
					<path fill="#EBCD8D" d="M700.6,199.004v16.04v102.718c8.854-0.005,16.033-7.182,16.033-16.041v-85.898v-0.78
						C716.633,206.19,709.454,199.006,700.6,199.004z"/>
				</g>
			</g>
		</g>
		<g>
			<g>
				<g>
					<path fill="#FFE099" d="M700.59,199.004c-8.858,0-16.038,7.181-16.038,16.04v0.78v85.898c0,8.859,7.179,16.041,16.038,16.041
						h0.01V215.044v-16.04H700.59z"/>
				</g>
			</g>
		</g>
		<g>
			<g>
				<g>
					<path fill="#EBCD8D" d="M758.747,215.044c-5.978,0-11.184,3.284-13.944,8.13c-1.329,2.34-2.096,5.039-2.096,7.91v41.012
						c0,8.861,7.184,16.038,16.04,16.038c8.858,0,16.04-7.177,16.04-16.038V242.01v-10.926
						C774.787,222.23,767.605,215.044,758.747,215.044z"/>
				</g>
			</g>
		</g>
		<g>
			<g>
				<g>
					<path fill="#FFE099" d="M656.38,223.174c-2.759-4.847-7.964-8.13-13.939-8.13c-8.861,0-16.043,7.187-16.043,16.04v10.923
						v30.089c0,8.861,7.182,16.038,16.043,16.038c8.856,0,16.035-7.177,16.035-16.038v-41.012
						C658.476,228.213,657.708,225.515,656.38,223.174z"/>
				</g>
			</g>
		</g>
		<g>
			<g>
				<polygon fill="none" points="701.511,556.776 701.511,556.776 701.511,556.776 				"/>
			</g>
		</g>
		<g>
			<g>
				<polygon fill="#FFFFFF" points="757.491,542.185 757.023,541.482 756.711,543.076 				"/>
			</g>
		</g>
		<g>
			<g>
				<polygon fill="#F5F5F5" points="756.711,543.076 757.023,541.482 704.342,557.718 701.511,556.776 715.728,589.949 				"/>
			</g>
		</g>
		<g>
			<g>
				<polygon fill="#00324D" points="715.728,589.949 701.511,556.776 701.511,605.945 				"/>
			</g>
		</g>
		<g>
			<g>
				<polygon fill="#00486C" points="701.511,605.945 701.511,605.945 701.511,556.776 687.293,589.949 				"/>
			</g>
		</g>
		<g>
			<g>
				<polygon fill="#FFFFFF" points="701.511,556.776 700.6,556.465 696.856,557.718 645.186,541.795 687.293,589.949 				"/>
			</g>
		</g>
		<g>
			<g>
				<polygon fill="#FFFFFF" points="700.725,829.094 700.824,829.286 700.923,829.094 700.824,828.576 				"/>
			</g>
		</g>
		<g>
			<g>
				<path fill="#264252" d="M701.511,827.968l95.611-183.596l-22.335-29.418l34.592-17.651l-21.81-28.753
					c-8.477-3.682-15.075-7.01-18.976-9.678l-11.103-16.688l-0.78,0.892l-55.2,281.992V827.968z"/>
			</g>
		</g>
		<g>
			<g>
				<polygon fill="#FFFFFF" points="700.824,828.576 700.923,829.094 701.511,827.968 701.511,825.068 				"/>
			</g>
		</g>
		<g>
			<g>
				<polygon fill="#E6E6E6" points="700.923,829.094 701.048,829.715 701.511,829.715 701.511,827.968 				"/>
			</g>
		</g>
		<g>
			<g>
				<path fill="#2D4E61" d="M915.366,624.479c-19.688-25.05-67.417-34.004-67.417-34.004c-23.153-7.28-44.904-15.198-60.38-21.925
					l21.81,28.753l-34.592,17.651l22.335,29.418l-95.611,183.596v1.747h218.593V716.186V680.66v-43.849
					C917.285,628.717,915.366,624.479,915.366,624.479z"/>
			</g>
		</g>
		<g>
			<g>
				<polygon fill="#FFFFFF" points="700.725,829.094 700.6,829.715 700.824,829.286 				"/>
			</g>
		</g>
		<g>
			<g>
				<polygon fill="#DBDBDB" points="701.511,605.945 701.511,605.945 719.16,641.801 701.511,758.736 701.511,825.068 
					756.711,543.076 715.728,589.949 				"/>
			</g>
		</g>
		<g>
			<g>
				<polygon fill="#E6E6E6" points="701.511,605.945 701.511,605.945 701.511,605.945 				"/>
			</g>
		</g>
		<g>
			<g>
				<polygon fill="#F0F0F0" points="701.511,825.068 701.511,758.736 701.511,758.742 683.858,641.801 701.511,605.945 
					687.293,589.949 645.186,541.795 644.65,541.628 700.824,828.576 				"/>
			</g>
		</g>
		<g>
			<g>
				<polygon fill="#FFFFFF" points="700.824,829.286 701.048,829.715 700.923,829.094 				"/>
			</g>
		</g>
		<g>
			<g>
				<polygon fill="#FFFFFF" points="700.6,829.715 701.048,829.715 700.824,829.286 				"/>
			</g>
		</g>
		<g>
			<g>
				<path fill="#355B71" d="M604.523,644.372l22.337-29.418l-34.597-17.651l22.042-29.049
					c-15.515,6.789-37.575,14.836-61.064,22.221c0,0-47.712,8.954-67.406,34.004c0,0-1.123,0.934-2.917,3.88v52.302v35.525v113.529
					H700.6l0.125-0.621L604.523,644.372z"/>
			</g>
		</g>
		<g>
			<g>
				<path fill="#2A4A5C" d="M626.86,614.954l-22.337,29.418l96.202,184.722l0.099-0.518L644.65,541.628l-0.473-0.146l-11.581,17.39
					c-3.802,2.595-10.146,5.814-18.292,9.382l-22.042,29.049L626.86,614.954z"/>
			</g>
		</g>
		<g>
			<g>
				<polygon fill="#00324D" points="701.511,605.945 701.511,758.736 719.16,641.801 				"/>
			</g>
		</g>
		<g>
			<g>
				<polygon fill="#00486C" points="701.511,605.945 683.858,641.801 701.511,758.742 701.511,758.736 701.511,605.945 				"/>
			</g>
		</g>
	</g>
</g>
<g>
	<path fill="#FFFFFF" d="M1224.886,218.281l-0.019-6.475l12.582-3.708c-0.363-4.743-1.103-9.387-2.182-13.89l-13.117,0.356
		l-2.013-6.155l10.848-7.441c-1.802-4.353-3.941-8.534-6.386-12.515l-12.377,4.392l-3.814-5.224l7.998-10.398
		c-3.045-3.575-6.37-6.896-9.94-9.943l-10.39,7.985l-5.25-3.794l4.402-12.382c-3.973-2.447-8.154-4.582-12.512-6.388l-7.437,10.834
		l-6.167-1.984l0.369-13.136c-4.509-1.079-9.147-1.813-13.891-2.179l-3.707,12.582h-6.475l-3.719-12.582
		c-4.737,0.367-9.376,1.1-13.885,2.179l0.361,13.136l-6.154,1.997l-7.441-10.848c-4.357,1.807-8.539,3.941-12.512,6.388
		l4.402,12.382l-5.242,3.812l-10.398-8.003c-3.566,3.047-6.895,6.368-9.939,9.943l8,10.398l-3.807,5.242l-12.39-4.402
		c-2.443,3.973-4.578,8.154-6.388,12.517l10.853,7.437l-1.999,6.157l-13.137-0.356c-1.079,4.501-1.81,9.14-2.176,13.882
		l12.579,3.708l0.003,6.482l-12.582,3.71c0.366,4.743,1.097,9.381,2.182,13.885l13.131-0.364l2.004,6.167l-10.85,7.434
		c1.802,4.358,3.944,8.536,6.383,12.512l12.382-4.399l3.817,5.239l-8.004,10.398c3.053,3.57,6.371,6.891,9.938,9.938l10.398-7.993
		l5.247,3.801l-4.402,12.387c3.974,2.442,8.162,4.574,12.513,6.384l7.441-10.843l6.156,1.994l-0.358,13.131
		c4.509,1.087,9.142,1.812,13.885,2.179l3.708-12.571l6.482-0.011l3.705,12.582c4.747-0.367,9.386-1.1,13.89-2.179l-0.356-13.118
		l6.149-2.018l7.438,10.853c4.361-1.81,8.539-3.945,12.513-6.396l-4.392-12.372l5.233-3.817l10.396,8.003
		c3.567-3.047,6.893-6.373,9.938-9.945l-7.987-10.388l3.799-5.25l12.385,4.402c2.443-3.97,4.581-8.154,6.383-12.517l-10.835-7.431
		l1.986-6.16l13.131,0.356c1.079-4.498,1.818-9.142,2.182-13.879L1224.886,218.281z M1148.645,274.803
		c-33.004,0-59.762-26.755-59.762-59.759s26.758-59.759,59.762-59.759c33.009,0,59.764,26.755,59.764,59.759
		S1181.653,274.803,1148.645,274.803z"/>
</g>
<g>
	<g>
		<g>
			<g>
				<path fill="#FF7F64" d="M548.862,759.948c0,38.404-31.139,69.543-69.546,69.543H270.682c-38.404,0-69.543-31.139-69.543-69.543
					V452.792c0-38.406,31.139-69.545,69.543-69.545h208.634c38.407,0,69.546,31.139,69.546,69.545V759.948z"/>
			</g>
		</g>
	</g>
	<g>
		<g>
			<path fill="#FFFFFF" d="M270.682,806.309c-25.564,0-46.36-20.796-46.36-46.36V452.792c0-25.564,20.796-46.363,46.36-46.363
				h208.634c25.564,0,46.363,20.798,46.363,46.363v307.156c0,25.564-20.799,46.36-46.363,46.36H270.682z"/>
		</g>
	</g>
	<g>
		<g>
			<rect x="259.093" y="461.484" fill="#E6E7E8" width="68.095" height="68.098"/>
		</g>
	</g>
	<g>
		<g>
			<rect x="259.093" y="572.322" fill="#E6E7E8" width="68.095" height="68.096"/>
		</g>
	</g>
	<g>
		<g>
			<rect x="259.093" y="683.158" fill="#E6E7E8" width="68.095" height="68.096"/>
		</g>
	</g>
	<g>
		<g>
			<rect x="353.267" y="461.484" fill="#E6E7E8" width="128.945" height="14.488"/>
		</g>
	</g>
	<g>
		<g>
			<rect x="353.267" y="499.155" fill="#E6E7E8" width="128.945" height="14.487"/>
		</g>
	</g>
	<g>
		<g>
			<rect x="353.267" y="572.322" fill="#E6E7E8" width="128.945" height="14.488"/>
		</g>
	</g>
	<g>
		<g>
			<rect x="353.267" y="609.993" fill="#E6E7E8" width="111.561" height="14.488"/>
		</g>
	</g>
	<g>
		<g>
			<rect x="353.267" y="683.158" fill="#E6E7E8" width="128.945" height="14.488"/>
		</g>
	</g>
	<g>
		<g>
			<rect x="353.267" y="720.826" fill="#E6E7E8" width="64.473" height="14.491"/>
		</g>
	</g>
	<g>
		<g>
			<path fill="#FF5336" d="M294.587,623.688l-22.33-22.333c-1.134-1.133-1.134-2.964,0-4.098c1.131-1.134,2.964-1.134,4.098,0
				l18.232,18.235l36.348-36.348c1.131-1.129,2.966-1.129,4.098,0c1.131,1.134,1.131,2.97,0,4.098L294.587,623.688z"/>
		</g>
	</g>
	<g>
		<g>
			<path fill="#FFD563" d="M438.931,355.721h-30.608c0-18.377-14.946-33.323-33.323-33.323c-18.375,0-33.324,14.946-33.324,33.323
				h-30.606v32.598h57.044c2.223,0.471,4.519,0.726,6.885,0.726c2.366,0,4.665-0.255,6.89-0.726h57.042V355.721z M374.999,333.987
				c11.981,0,21.731,9.753,21.731,21.734h-43.463C353.267,343.74,363.018,333.987,374.999,333.987z"/>
		</g>
	</g>
	<g>
		<g>
			<g>
				<rect x="311.069" y="388.319" fill="#E0BB58" width="127.861" height="32.598"/>
			</g>
		</g>
	</g>
</g>
<g>
	<g>
		<path fill="#AEAFB0" d="M857.927,185.374v8.252h14.722l2.532-10.088c-1.602,1.149-3.56,1.836-5.684,1.836H857.927z"/>
	</g>
	<g>
		<path fill="#D1D3D4" d="M857.927,185.374h-11.568c-2.122,0-4.079-0.687-5.682-1.836l2.135,10.088h15.115V185.374z"/>
	</g>
	<g>
		<path fill="#EFC361" d="M857.927,69.26v116.114h11.57c2.124,0,4.082-0.687,5.684-1.836c2.457-1.771,4.064-4.646,4.064-7.91
			v-24.205c13.438-7.494,22.532-21.838,22.532-38.315C901.777,88.893,882.146,69.262,857.927,69.26z"/>
	</g>
	<g>
		<path fill="#FFCF66" d="M857.927,185.374V69.26l0,0c-24.216,0-43.847,19.633-43.847,43.849c0,16.477,9.096,30.822,22.535,38.315
			v24.205c0,3.263,1.607,6.139,4.062,7.91c1.603,1.149,3.56,1.836,5.682,1.836H857.927z"/>
	</g>
	<g>
		<path fill="#D1D3D4" d="M857.927,201.51h-17.25v2.787c0,3.76,3.051,6.813,6.818,6.813h10.432V201.51z"/>
	</g>
	<g>
		<path fill="#AEAFB0" d="M857.927,211.11h10.439c3.765,0,6.814-3.053,6.814-6.813v-2.787h-17.254V211.11z"/>
	</g>
	<g>
		<polygon fill="#D1D3D4" points="857.927,193.626 842.812,193.626 840.677,201.51 857.927,201.51 		"/>
	</g>
	<g>
		<polygon fill="#AEAFB0" points="857.927,201.51 875.181,201.51 872.648,193.626 857.927,193.626 		"/>
	</g>
	<g>
		<path fill="#808285" d="M857.927,215.959c4.303,0,8.159-1.88,10.821-4.849h-0.382h-10.439V215.959z"/>
	</g>
	<g>
		<path fill="#808285" d="M847.495,211.11h-0.386c2.66,2.969,6.517,4.849,10.817,4.849l0,0v-4.849H847.495z"/>
	</g>
	<g>
		<path fill="#E0B65A" d="M828.85,97.144c-4.285,7.174-4.554,14.904-0.599,17.262c3.95,2.361,10.627-1.542,14.912-8.718
			c4.285-7.174,4.553-14.904,0.601-17.262C839.812,86.059,833.134,89.967,828.85,97.144z"/>
	</g>
</g>
<g>
	<g>
		<polygon fill="#E5765F" points="1227.299,866.967 1294.018,869.037 834.189,665.443 823.847,688.879 		"/>
	</g>
	<g>
		<path fill="#FF7F64" d="M751.75,852.209l475.549,14.758L823.847,688.879L751.75,852.209z M1063.803,816.607l-243.523-7.556
			l37.021-83.875L1063.803,816.607z"/>
	</g>
	<g>
		
			<rect x="839.642" y="669.71" transform="matrix(0.9146 0.4044 -0.4044 0.9146 346.0645 -282.1927)" fill="#FFFFFF" width="2.661" height="16.632"/>
	</g>
	<g>
		<polygon fill="#FFFFFF" points="854.988,687.482 852.555,686.406 857.118,676.063 859.552,677.14 		"/>
	</g>
	<g>
		
			<rect x="867.449" y="681.986" transform="matrix(0.9146 0.4044 -0.4044 0.9146 353.4042 -292.3903)" fill="#FFFFFF" width="2.661" height="16.628"/>
	</g>
	<g>
		
			<rect x="882.529" y="688.394" transform="matrix(0.9146 0.4044 -0.4044 0.9146 356.2078 -298.1693)" fill="#FFFFFF" width="2.661" height="11.304"/>
	</g>
	<g>
		
			<rect x="895.256" y="694.26" transform="matrix(0.9146 0.4044 -0.4044 0.9146 360.7443 -302.5878)" fill="#FFFFFF" width="2.661" height="16.63"/>
	</g>
	<g>
		
			<rect x="910.337" y="700.67" transform="matrix(0.9146 0.4044 -0.4044 0.9146 363.5481 -308.367)" fill="#FFFFFF" width="2.661" height="11.303"/>
	</g>
	<g>
		
			<rect x="923.062" y="706.533" transform="matrix(0.9146 0.4044 -0.4044 0.9146 368.084 -312.7848)" fill="#FFFFFF" width="2.661" height="16.632"/>
	</g>
	<g>
		
			<rect x="938.144" y="712.942" transform="matrix(0.9146 0.4044 -0.4044 0.9146 370.8878 -318.5643)" fill="#FFFFFF" width="2.661" height="11.306"/>
	</g>
	<g>
		
			<rect x="950.87" y="718.807" transform="matrix(0.9146 0.4044 -0.4044 0.9146 375.4236 -322.9829)" fill="#FFFFFF" width="2.661" height="16.63"/>
	</g>
	<g>
		
			<rect x="965.949" y="725.218" transform="matrix(0.9146 0.4044 -0.4044 0.9146 378.2273 -328.7614)" fill="#FFFFFF" width="2.661" height="11.304"/>
	</g>
	<g>
		<polygon fill="#FFFFFF" points="977.868,747.543 975.435,746.467 982.147,731.253 984.581,732.33 		"/>
	</g>
	<g>
		
			<rect x="993.758" y="737.493" transform="matrix(0.9146 0.4044 -0.4044 0.9146 385.5676 -338.9595)" fill="#FFFFFF" width="2.661" height="11.304"/>
	</g>
	<g>
		<polygon fill="#FFFFFF" points="1005.674,759.818 1003.24,758.742 1009.953,743.525 1012.387,744.603 		"/>
	</g>
	<g>
		
			<rect x="1021.565" y="749.766" transform="matrix(0.9146 0.4044 -0.4044 0.9146 392.9073 -349.157)" fill="#FFFFFF" width="2.661" height="11.305"/>
	</g>
	<g>
		
			<rect x="1034.29" y="755.631" transform="matrix(0.9146 0.4044 -0.4044 0.9146 397.4431 -353.575)" fill="#FFFFFF" width="2.661" height="16.63"/>
	</g>
	<g>
		
			<rect x="1049.372" y="762.041" transform="matrix(0.9146 0.4044 -0.4044 0.9146 400.247 -359.3545)" fill="#FFFFFF" width="2.661" height="11.304"/>
	</g>
	<g>
		
			<rect x="1062.099" y="767.906" transform="matrix(0.9146 0.4044 -0.4044 0.9146 404.7834 -363.7731)" fill="#FFFFFF" width="2.661" height="16.63"/>
	</g>
	<g>
		
			<rect x="1077.178" y="774.317" transform="matrix(0.9144 0.4047 -0.4047 0.9144 407.973 -369.7766)" fill="#FFFFFF" width="2.661" height="11.303"/>
	</g>
	<g>
		<polygon fill="#FFFFFF" points="1089.094,796.642 1086.66,795.564 1093.376,780.349 1095.81,781.426 		"/>
	</g>
	<g>
		<polygon fill="#FFFFFF" points="1105.251,797.952 1102.817,796.875 1107.381,786.532 1109.814,787.608 		"/>
	</g>
	<g>
		
			<rect x="1117.712" y="792.455" transform="matrix(0.9146 0.4044 -0.4044 0.9146 419.4626 -384.1676)" fill="#FFFFFF" width="2.661" height="16.629"/>
	</g>
	<g>
		
			<rect x="1132.792" y="798.864" transform="matrix(0.9146 0.4044 -0.4044 0.9146 422.2665 -389.9465)" fill="#FFFFFF" width="2.661" height="11.304"/>
	</g>
	<g>
		
			<rect x="1145.518" y="804.73" transform="matrix(0.9144 0.4047 -0.4047 0.9144 427.2082 -394.6067)" fill="#FFFFFF" width="2.661" height="16.629"/>
	</g>
	<g>
		
			<rect x="1160.6" y="811.139" transform="matrix(0.9144 0.4047 -0.4047 0.9144 430.0151 -400.3904)" fill="#FFFFFF" width="2.661" height="11.304"/>
	</g>
	<g>
		
			<rect x="1173.324" y="817.002" transform="matrix(0.9144 0.4047 -0.4047 0.9144 434.5552 -404.8104)" fill="#FFFFFF" width="2.661" height="16.632"/>
	</g>
	<g>
		
			<rect x="1188.406" y="823.412" transform="matrix(0.9146 0.4044 -0.4044 0.9146 436.9462 -410.3416)" fill="#FFFFFF" width="2.661" height="11.306"/>
	</g>
	<g>
		
			<rect x="1201.133" y="829.278" transform="matrix(0.9144 0.4047 -0.4047 0.9144 441.9025 -415.0155)" fill="#FFFFFF" width="2.661" height="16.629"/>
	</g>
</g>
<g>
	<g>
		<path fill="#B8BABC" d="M577.918,892.251c-0.608,0-1.154-0.416-1.297-1.032l-2.868-12.444c-0.164-0.718,0.281-1.431,0.999-1.597
			c0.73-0.156,1.43,0.283,1.596,0.998l2.868,12.444c0.164,0.718-0.281,1.431-0.999,1.597
			C578.116,892.24,578.017,892.251,577.918,892.251z"/>
	</g>
	<g>
		<path fill="#B8BABC" d="M648.239,876.044c-0.608,0-1.154-0.416-1.297-1.032l-2.868-12.441c-0.164-0.718,0.281-1.43,0.999-1.597
			c0.723-0.164,1.43,0.283,1.597,0.999l2.868,12.441c0.164,0.718-0.281,1.43-0.998,1.597
			C648.437,876.034,648.337,876.044,648.239,876.044z"/>
	</g>
	<g>
		<path fill="#B8BABC" d="M540.414,803.425c-0.608,0-1.155-0.416-1.298-1.032c-0.164-0.718,0.281-1.43,0.999-1.597l102.781-23.685
			c0.723-0.163,1.43,0.281,1.597,0.999c0.164,0.718-0.281,1.43-0.999,1.597l-102.781,23.685
			C540.611,803.415,540.513,803.425,540.414,803.425z"/>
	</g>
	<g>
		<path fill="#FFC547" d="M585.898,693.978c-1.965-8.539-10.484-13.863-19.022-11.898c-8.539,1.969-13.864,10.486-11.898,19.022
			c1.968,8.542,10.489,13.867,19.022,11.898C582.541,711.032,587.866,702.517,585.898,693.978z"/>
	</g>
	<g>
		<path fill="#FFFFFF" d="M575.604,670.022l-5.694-24.701c-1.333-5.793-7.111-9.407-12.904-8.07l-0.874,0.202
			c-5.791,1.332-9.407,7.109-8.071,12.902l5.691,24.704c3.011-2.236,6.514-3.903,10.398-4.8
			C568.038,669.362,571.92,669.331,575.604,670.022z"/>
	</g>
	<g>
		<path fill="#0095BF" d="M555.255,721.053l2.48,125.534l18.315,36.238l-3.11-157.404
			C566.569,726.001,560.378,724.363,555.255,721.053z"/>
	</g>
	<g>
		<path fill="#0095BF" d="M647.089,825.997l-52.705-113.962c-3.162,5.217-8.008,9.4-13.991,11.67l66.087,142.893L647.089,825.997z"
			/>
	</g>
	<g>
		<path fill="#808285" d="M575.604,670.022c-3.684-0.691-7.566-0.66-11.454,0.237c-3.884,0.896-7.387,2.563-10.398,4.8
			c-8.653,6.43-13.169,17.587-10.595,28.768c1.706,7.39,6.193,13.411,12.098,17.226c5.123,3.311,11.313,4.948,17.686,4.368
			c1.256-0.111,2.52-0.307,3.783-0.598c1.267-0.294,2.486-0.671,3.669-1.118c5.983-2.27,10.83-6.453,13.991-11.67
			c3.64-6.011,5.039-13.391,3.336-20.782C595.144,680.072,586.202,672.017,575.604,670.022z M574,713
			c-8.534,1.969-17.055-3.356-19.022-11.898c-1.966-8.536,3.359-17.054,11.898-19.022c8.539-1.965,17.057,3.359,19.022,11.898
			C587.866,702.517,582.541,711.032,574,713z"/>
	</g>
	<g>
		<path fill="#808285" d="M598.017,801.873c0.429,1.856-0.728,3.705-2.584,4.131l0,0c-1.851,0.43-3.703-0.728-4.131-2.581
			l-5.712-24.795c-0.427-1.854,0.73-3.705,2.584-4.132l0,0c1.854-0.427,3.705,0.728,4.129,2.584L598.017,801.873z"/>
	</g>
</g>
<g>
	<polygon fill="#E2B95C" points="258.848,674.667 346.764,674.667 346.764,719.188 225.036,719.188 	"/>
</g>
<g>
	<polygon fill="#FFCF66" points="346.764,719.188 225.036,719.188 224.188,719.188 117.053,719.188 117.053,874.713 
		346.764,874.713 	"/>
</g>
<g>
	<rect x="117.053" y="874.713" fill="#E2B95C" width="229.711" height="23.45"/>
</g>
<g>
	<rect x="190.257" y="796.951" fill="#E2B95C" width="120.813" height="45.929"/>
</g>
</svg>
